<svg
					version="1.1"
					id="Layer_1"
					xmlns="http://www.w3.org/2000/svg"
					xmlns:xlink="http://www.w3.org/1999/xlink"
					x="0px"
					y="0px"
					viewBox="0 0 100 50"
					style="enable-background:new 0 0 100 50;"
					xml:space="preserve"
					class="h-15 w-32"
				>
					<style type="text/css">
						.st0 {
							fill: none;
						}
						.st1 {
							font-family: "TimesNewRomanPSMT";
						}
						.st2 {
							font-size: 13.1657px;
						}
						.st3 {
							font-size: 24.5759px;
						}
					</style>
					<g>
						<path
							d="M7.2,17.4c0.2-0.9,0.3-1.7,0.4-2.6c0.1-0.8,0.1-1.7,0.1-2.5c0.7,2.7-0.1,5.2-0.3,7.9C7.6,19,7.8,17.9,8,16.8
									c0,0,0.1,0,0.1,0c0,1-0.1,2.1-0.1,2.8C8.3,18,8.7,16.2,9,14.4c0,0.1,0,0.3,0.1,0.6c0.1-0.2,0.1-0.4,0.2-0.5c0,0,0.1,0,0.1,0
									c-0.2,1-0.4,2.1-0.6,3.1c0,0,0.1,0,0.1,0c0.2-0.7,0.4-1.4,0.6-2.1c0,0,0,0,0.1,0c-0.1,1.2-0.3,2.4-0.4,3.6c0.5-1.3,0.8-2.7,1.3-4
									c0.4-1.3,1-2.6,1.5-4c0.1,0,0.1,0,0.2,0.1c-1.1,2.7-2,5.4-2.2,8.3c0.5-2.2,0.7-4.4,1.7-6.4c-0.3,1.1-0.7,2.2-0.9,3.4
									c-0.2,1.1-0.3,2.3-0.5,3.4c0.4-0.9,0.6-1.8,1-2.7c0.4-0.8,1-1.5,1.5-2.3c-0.5,1.1-1.1,2.1-1.5,3.1c-0.4,1.1-0.6,2.2-0.9,3.3
									c0,0,0,0,0,0c0.5-1.3,0.9-2.5,1.4-3.8c0,0,0.1,0,0.1,0.1c-0.1,0.7-0.3,1.5-0.4,2.3c0.5-1.3,1-2.4,1.4-3.5c0,0,0,0,0,0
									c-0.3,1.4-0.5,2.8-0.8,4.3c0.1,0,0.1,0,0.2,0c0.5-1.4,0.9-2.7,1.4-4.1c0.1,0,0.1,0,0.2,0.1c-0.3,1.1-0.7,2.2-1,3.3
									c0.5-1,0.9-2.1,1.9-3c-0.6,1.2-1.1,2.3-1.7,3.5c0.1,0,0.1,0,0.2,0.1c0.1-0.2,0.3-0.4,0.4-0.7c0,0,0.1,0,0.1,0
									c0,0.2-0.1,0.5-0.1,0.6c0.5-1,1-2.1,1.5-3.2c0.1,0,0.1,0.1,0.2,0.1c-0.4,0.9-0.8,1.8-1.2,2.8c0.1,0,0.1,0.1,0.2,0.1
									c0.4-0.5,0.8-1,1.2-1.4c-0.5,1.1-1.3,2.1-1.5,3.3c0.4-0.6,0.7-1.3,1-1.9c0.3-0.6,0.8-1.2,1.1-1.8c0.1,0,0.1,0.1,0.2,0.1
									c-0.4,0.9-1.2,1.6-1.2,2.7c0.3-0.3,0.6-0.5,0.9-0.8c0,0,0,0,0,0.1c-0.4,0.7-0.8,1.5-1.1,2.2c0,0,0.1,0,0.1,0.1
									c0.7-1.1,1.5-2.1,2.2-3.2c0.1,0,0.1,0.1,0.2,0.1c-0.5,0.9-1.1,1.8-1.6,2.7c0.1,0,0.1,0.1,0.2,0.1c0.9-1,1.8-2,3-2.6
									c-0.8,0.7-1.5,1.4-2.1,2.2c0,0,0.1,0.1,0.1,0.1c0.5-0.5,1-0.9,1.5-1.4c0,0,0,0,0,0c-0.5,0.7-1,1.4-1.5,2.2c0.6,0,1-0.1,1.5-0.1
									c0-0.2,0-0.3,0-0.6c0.2,0.2,0.3,0.4,0.4,0.5c0-0.2,0.1-0.4,0.1-0.7c0.1,0.3,0.2,0.5,0.3,0.7c0,0,0.1,0,0.1,0
									c-0.1-0.4-0.2-0.8-0.2-1.1c0,0,0,0,0.1,0c0.2,0.3,0.4,0.6,0.6,1c0.1-0.2,0.1-0.3,0.2-0.6c0.1,0.2,0.2,0.4,0.2,0.5c0,0,0.1,0,0.1,0
									c0-0.5-0.1-0.9-0.1-1.4c0,0,0.1,0,0.1,0c0.2,0.4,0.3,0.8,0.5,1.2c0,0,0,0,0.1,0c0-0.3,0-0.7,0-1c0,0,0.1,0,0.1,0
									c0.1,0.3,0.1,0.7,0.2,1c0,0,0.1,0,0.1,0c0-0.4,0-0.7,0-1.1c0,0,0.1,0,0.1,0c0.1,0.2,0.1,0.5,0.3,0.8c0.1-0.3,0.1-0.5,0.1-0.7
									c0.2,0.4,0.4,0.7,0.6,1.1c-0.1-0.6-0.1-1-0.2-1.5c0,0,0.1,0,0.1,0c0.2,0.5,0.4,0.9,0.6,1.4c0,0,0.1,0,0.1,0c0-0.6-0.1-1.1-0.1-1.7
									c0,0,0.1,0,0.1,0c0.1,0.6,0.3,1.1,0.4,1.7c0,0,0.1,0,0.1,0c0-0.5-0.1-1-0.1-1.5c0.2,0.4,0.4,0.8,0.7,1.3c0-0.4,0-0.7-0.1-0.9
									c0,0,0,0,0.1,0c0.1,0.3,0.2,0.7,0.3,1c0,0,0.1,0,0.1,0c0-0.4,0-0.7,0.1-1.1c0,0,0.1,0,0.1,0c0.1,0.3,0.2,0.5,0.3,0.8
									c0,0,0.1,0,0.1,0c-0.1-0.6-0.3-1.2-0.4-1.8c0,0,0,0,0.1,0c0.2,0.3,0.3,0.7,0.5,1.1c0.1-0.3,0.1-0.4,0.2-0.7c0.2,0.6,0.4,1,0.5,1.4
									c0-0.3,0-0.6,0-0.8c0.2,0.1,0.3,0.1,0.5,0.2c-0.1-0.4-0.1-0.7-0.1-1c0.1,0,0.1,0,0.2,0c0.2,0.6,0.5,1.2,0.7,1.8c0,0,0.1,0,0.1,0
									c-0.1-0.9-0.3-1.8-0.4-2.7c0,0,0,0,0,0c0.3,0.7,0.5,1.4,0.9,2.2c0-0.3,0-0.5,0-0.8c0.1,0.3,0.2,0.6,0.3,0.9
									c0.5-0.8,0.1-1.4-0.2-2.1c0.1,0,0.1,0,0.2-0.1c0.3,0.8,0.7,1.7,1,2.5c0.1,0,0.1,0,0.2,0c-0.1-0.7-0.2-1.4-0.3-2.1c0,0,0.1,0,0.1,0
									c0.2,0.8,0.5,1.6,0.8,2.6c0-0.6,0-1,0-1.5c0,0,0.1,0,0.1,0c0.1,0.5,0.2,0.9,0.2,1.4c0.1,0,0.1,0,0.2,0c-0.1-0.8-0.2-1.6-0.4-2.4
									c0,0,0.1,0,0.1,0c0.3,0.9,0.6,1.8,0.8,2.7c0.1,0,0.1,0,0.2,0c-0.1-0.8-0.2-1.6-0.4-2.4c0,0,0.1,0,0.1,0c0.3,0.7,0.5,1.4,0.8,2.1
									c0,0,0.1,0,0.1,0c0-0.2,0-0.4,0-0.8c0.2,0.3,0.2,0.4,0.3,0.6c0.1,0,0.1,0,0.2,0c-0.1-0.6-0.3-1.3-0.4-1.9c0,0,0.1,0,0.1,0
									c0.2,0.8,0.5,1.6,0.7,2.5c0-0.3,0-0.6,0.1-1c0.1,0.4,0.2,0.6,0.3,0.8c0.1,0,0.1,0,0.2,0c-0.2-0.8-0.4-1.6-0.6-2.4
									c0.8,0.7,0.7,1.8,1.1,2.8c0-0.4-0.1-0.8-0.1-1.3c0.2,0.4,0.3,0.6,0.5,0.9c0.1,0,0.1,0,0.2-0.1c-0.2-0.7-0.4-1.5-0.6-2.2
									c0.1,0,0.1,0,0.2-0.1c0.3,1,0.7,2,1,2.9c0.1,0,0.1,0,0.2,0c-0.1-0.8-0.2-1.7-0.3-2.4c0.8,0.6,0.6,1.6,0.7,2.5
									c0-0.3,0.1-0.7,0.1-1.1c0.1,0.3,0.2,0.6,0.3,0.8c0,0,0.1,0,0.1,0c-0.1-0.9-0.2-1.8-0.2-2.6c0.7,0.9,0.5,2,0.7,3.1
									c0.1-0.6,0.2-1.2,0.3-1.8c0,0,0.1,0,0.1,0c0,0.7,0,1.3,0,2c0,0,0,0,0.1,0c0.2-0.5,0.3-1,0.5-1.5c0,0,0,0,0.1,0
									c-0.1,0.6-0.2,1.1-0.3,1.7c0,0,0.1,0,0.1,0c0.3-0.6,0.5-1.3,0.8-1.9c0,0,0,0,0.1,0c-0.2,0.8-0.4,1.5-0.5,2.3c0,0,0.1,0,0.1,0
									c0.3-1,0.6-2,0.9-2.8c-0.1,0.8-0.3,1.9-0.5,3.1c0.3-0.6,0.6-1.2,0.9-1.8c0.1,5.7-1.5,13.7-11.3,18.3c-3.2,1.5-6.6,1.9-10.1,1.3
									c-4.9-0.7-8.9-3.1-12-7c-3.5-4.4-5.6-12-2.4-18.7c0,0.3,0,0.5,0,0.8c0,0,0.1,0,0.1,0C3.9,16.6,4,16,4.2,15.5c0,0,0,0,0.1,0
									c0,1,0.1,2,0.1,2.9c0,0,0.1,0,0.1,0c0.2-1.3,0.3-2.7,0.5-4c0,0,0.1,0,0.1,0c0,1.1,0,2.2,0,3.2c0,0,0.1,0,0.1,0
									c0.1-1.5,0.2-2.9,0.3-4.4c0.1,0,0.1,0,0.2,0c0,1.1,0,2.2,0,3.3c0,1.1-0.1,2.2-0.1,3.3c0.1,0,0.1,0,0.2,0c0.2-1.9,0.3-3.9,0.5-5.9
									C6.6,15.1,6.9,16.3,7.2,17.4z M26.1,39.2c0.5,0.4,0.8,0.7,1.1,1c1.1-0.6,2.3-1.1,3.4-1.7c0.1-0.1,0.2-0.5,0.1-0.6
									c-0.6-1.1-1.2-2.1-2.4-2.6c-0.3-0.1-0.7-0.2-1.1-0.1c-1.4,0.4-2.2-0.6-2.8-1.6c-0.6-1-1-2.1-1.6-3.2c-0.4-0.8-0.8-0.9-1.6-0.4
									c-1,0.7-2.7,1.1-4.1,0.9c0.4,0.7,1,1.3,0.8,2.4c-0.9-1.6-2-2.7-3.7-3c0.1,1.1,0.1,2.2,0.3,3.3c0,0.2,0.2,0.5,0.4,0.5
									c0.6,0.1,1.2,0.2,1.9,0.2c1.1-0.1,2.1,0.2,3,0.8c1.3,0.9,2.6,1.8,3.9,2.7c0.8,0.6,1.8,0.6,2.8,0.4c0.9-0.1,1.9-0.2,2.8-0.3
									c0,0.1,0,0.2,0,0.2C28.3,38.6,27.3,38.9,26.1,39.2z M10.7,35.8c-0.8-0.6-1.3-1.4-1.6-2.4c-0.1-0.4-0.2-0.7-0.3-1.1
									c-0.3-1.7-1.5-2.5-3-3.2c-0.7,0.6-0.9,1.3-0.5,2.1c-0.7-0.7-0.9-1.5-0.4-2.4c-0.5-0.3-0.9-0.6-1.5-0.9c0.3,1.6,0.9,2.8,1.7,4.1
									c0.7,1.3,1.5,2.4,2.5,3.5c1,1.1,2.1,2,3.3,2.9c1.2,0.9,2.6,1.3,3.9,1.9c0.2-0.7,0.2-1.3-0.1-2c-0.5-1.1-0.8-2.3-1.2-3.4
									c-0.1-0.5-0.3-0.9-0.3-1.4c-0.1-0.5-0.4-0.7-0.8-0.7c-0.8,0-1.7,0-2.6-0.1c0.1,0.9,0.4,1.7,1.1,2.3c0.4,0.4,0.9,0.7,1.3,1.1
									c0.2,0.2,0.3,0.5,0.4,0.7c0,0-0.1,0-0.1,0.1C11.9,36.7,11.3,36.3,10.7,35.8z M15.9,38.5c0.1,0.7,0.2,1.5,0.2,2.3
									c1.8,0.4,3.7,0.7,5.6,0.6c1.5-0.1,2.9-0.4,4.3-0.7c0.3-0.1,0.4-0.3,0.1-0.5c-0.5-0.3-1-0.5-1.6-0.8c-0.7-0.4-1.4-0.8-2.1-1.1
									c-0.1-0.1-0.2-0.1-0.5-0.3c0.2,0.4,0.3,0.7,0.4,1c0,0-0.1,0.1-0.1,0.1c-1-1-1.9-2.2-3.2-2.9c-1.4-0.8-2.9-0.4-4.4-0.6
									c0.2,0.7,0.4,1.4,0.7,2.1c0.1,0.1,0.5,0.1,0.7,0.2c0.7,0.2,1.4,0.2,2,0.6c0.4,0.2,0.6,0.7,0.9,1.1C18,38.9,17.1,38.1,15.9,38.5z
									M11.6,24.6c-0.1,1.1,0.8,2.1,2,2.4c0.6,0.1,1.2,0.2,1.8,0.1c2.8-0.7,5.3,0.1,7.6,1.7c2,1.4,4.2,2.5,6.7,2.8
									c1.9,0.2,3.7,0.3,5.6-0.3c0.3-0.1,0.7-0.2,1-0.3c0.8-0.2,0.9-0.8,1.1-1.5c-1,0.3-2,0.5-2.9,0.8c-2.4,0.6-4.8,0.3-7.1-0.6
									c-1.8-0.7-3.2-1.9-4.9-2.7c-1.7-0.9-3.5-1.7-5.5-1.4c-0.6,0.1-1.1,0.1-1.7,0.2c-1.3,0.2-2.2-0.1-3.1-1.3
									C12,24.5,11.8,24.6,11.6,24.6z M24.8,31c0,0.3,0,0.4,0,0.4c0.4,0.8,0.8,1.7,1.2,2.5c0.2,0.4,0.6,0.6,1.1,0.5c1-0.2,1.8,0.2,2.5,0.8
									c1,0.9,2.2,0.8,3.3,1c0.3,0,0.7-0.4,0.9-0.6c0.9-1.1,1.9-2.1,2.5-3.6C32.3,33.2,28.5,32.9,24.8,31z M12.3,28.8
									c-0.4-1-1.1-1-1.8-1.1c-1.4-0.2-2.9-0.4-4.3-0.9c-1.4-0.4-2.4-1.4-3.1-2.7c0-0.1,0-0.2,0-0.2C3,23.9,3,24,2.9,24
									c0.1,0.8,0.2,1.6,0.3,2.3c0.6,0.4,1.1,0.8,1.7,1.2c1.1,0.7,2.2,1.2,3.2,1.9c0.5,0.4,1,0.9,1.2,1.5c0.4,1,1.2,1.1,2,1.2
									c0.6,0.1,1.2,0,1.9,0C13.1,31,12.7,29.9,12.3,28.8z M16.6,29.6c1.4,0.3,2.8,0.2,3.9-1.1C19.7,28.3,18.9,28,18,28
									c-0.7-0.1-1.4,0.1-2.2,0.2c-0.8,0-1.6,0-2.5,0.1C14.3,29.2,15.5,29.4,16.6,29.6z M8.9,25.1c-1.2,0-2.3-0.6-3.4-1.2
									c-0.4-0.2-0.8-0.4-1.3-0.6c0.2,1.2,0.9,1.8,2.3,2.3c1.3,0.5,2.8,0.7,4.3,1.1C10.5,25.6,10,25.2,8.9,25.1z M6.3,19.8
									c0.5-1.5,0.4-2.9-0.1-4.2C6.3,16.9,6.3,18.3,6.3,19.8z M31.4,37.8c0.3-0.2,0.5-0.4,0.8-0.7c-0.5-0.1-0.8-0.1-1.3-0.2
									C31.1,37.3,31.2,37.5,31.4,37.8z"
							fill="currentColor"></path>
						<path
							d="M11.3,16c0.3-0.6,0.6-1.3,1-1.9c0.1-0.1,0.1-0.3,0.2-0.3c0.9,0.2,0.9-0.7,1.3-1.1c0.3-0.3,0.4-0.8,0.7-1.2
									c0.6-0.8,1.2-1.7,1.8-2.6C13.5,10.6,12.3,13.3,11.3,16z"
							fill="currentColor"></path>
						<path
							d="M9.5,13.7c0.2-0.2,0.5-0.6,0.7-1c0.3-0.5,0.5-1.1,0.7-1.6c0.2-0.8,0.4-1.5,0.6-2.3C10.5,10.3,9.5,11.9,9.5,13.7z"
							fill="currentColor"></path>
						<path
							d="M16.4,15.3c0.1,0,0.1,0,0.1,0c1,0.1,1.5-0.7,2.2-1.3c0.4-0.3,0.9-0.5,1.4-0.8C20,13.2,20,13.1,19.9,13
									C18.5,13.3,17.4,14.1,16.4,15.3z"
							fill="currentColor"></path>
						<path
							d="M12.7,9.6c0.5-0.6,1-1.1,1.4-1.7c0.4-0.6,0.7-1.3,1.1-2.1C13.8,6.9,13.1,8.3,12.7,9.6z"
							fill="currentColor"></path>
						<path
							d="M20.9,15.2c-0.3,0-0.6-0.1-0.8,0c-0.7,0.3-1.3,0.6-2,1c-0.1,0.1,1.5-1.8-0.2,0.4s0.4,0.1,0.5,0
									C19.2,16.2,20,15.7,20.9,15.2C20.9,15.2,20.9,15.2,20.9,15.2z"
							fill="currentColor"></path>
						<path
							d="M15.5,13.7c0.4-0.4,0.8-0.8,1.1-1.2c0.5-0.6,1-1.2,1.4-1.8C17.1,11.5,16.1,12.5,15.5,13.7L15.5,13.7z"
							fill="currentColor"></path>
						<path
							d="M15.5,13.7c-0.5,0.8-1,1.7-1.5,2.5c0.1,0,0.2,0.1,0.2,0.1C14.7,15.5,15.1,14.6,15.5,13.7C15.5,13.7,15.5,13.7,15.5,13.7z"
							fill="currentColor"></path>
						<path
							d="M27.5,37.4c0.3-0.3,0.7-0.5,0.7-0.7c0-0.2-0.2-0.6-0.5-0.7c-0.3-0.1-0.7,0.1-0.7,0.5C27,36.8,27.3,37,27.5,37.4z"
							fill="currentColor"></path>
						<path
							d="M19.1,33.2c0.2,0.3,0.4,0.5,0.5,0.5c0.2,0,0.4-0.3,0.6-0.4c-0.1-0.2-0.3-0.4-0.4-0.5C19.6,32.8,19.4,33,19.1,33.2z"
							fill="currentColor"></path>
						<path
							d="M24.3,36.1c-0.2,0.1-0.4,0.2-0.4,0.3c0,0.1,0.1,0.4,0.2,0.4c0.1,0,0.3-0.1,0.4-0.3C24.6,36.4,24.4,36.2,24.3,36.1z"
							fill="currentColor"></path>
						<path
							d="M6.8,33.3c0.3,0.3,0.4,0.5,0.5,0.5c0.2,0,0.3-0.2,0.5-0.3c-0.1-0.2-0.2-0.4-0.4-0.5C7.4,33,7.2,33.1,6.8,33.3z"
							fill="currentColor"></path>
					</g>
					<rect
						x="40.5"
						y="11.9"
						class="st0"
						width="56.8"
						height="10.1"
						fill="currentColor"></rect>
					<text
						transform="matrix(1 0 0 1 40.5293 21.0616)"
						class="st1 st2"
						fill="currentColor">Pastizales</text
					>
					<rect
						x="40.5"
						y="23.7"
						class="st0"
						width="59"
						height="17.8"
						fill="currentColor"></rect>
					<text
						transform="matrix(1 0 0 1 40.5293 40.7399)"
						class="st1 st3"
						fill="currentColor">ROU</text
					>
				</svg>